<svg width="77" height="78" viewBox="0 0 77 78" fill="none" xmlns="http://www.w3.org/2000/svg">
<circle cx="38.08" cy="38.9709" r="38.08" fill="url(#paint0_linear_116_6778)"/>
<g clip-path="url(#clip0_116_6778)">
<path opacity="0.2" d="M38 23.947C35.0163 23.947 32.1548 25.1322 30.045 27.242C27.9353 29.3518 26.75 32.2133 26.75 35.197C26.75 45.322 38 53.197 38 53.197C38 53.197 49.25 45.322 49.25 35.197C49.25 32.2133 48.0647 29.3518 45.955 27.242C43.8452 25.1322 40.9837 23.947 38 23.947ZM38 39.697C37.11 39.697 36.24 39.433 35.4999 38.9386C34.7599 38.4441 34.1831 37.7413 33.8425 36.919C33.5019 36.0968 33.4128 35.192 33.5865 34.3191C33.7601 33.4461 34.1887 32.6443 34.818 32.015C35.4474 31.3856 36.2492 30.9571 37.1221 30.7834C37.995 30.6098 38.8998 30.6989 39.7221 31.0395C40.5443 31.3801 41.2471 31.9569 41.7416 32.6969C42.2361 33.4369 42.5 34.3069 42.5 35.197C42.5 36.3904 42.0259 37.535 41.182 38.3789C40.3381 39.2229 39.1935 39.697 38 39.697Z" fill="black"/>
<path d="M38 39.697C40.4853 39.697 42.5 37.6822 42.5 35.197C42.5 32.7117 40.4853 30.697 38 30.697C35.5147 30.697 33.5 32.7117 33.5 35.197C33.5 37.6822 35.5147 39.697 38 39.697Z" stroke="black" stroke-width="1.4" stroke-linecap="round" stroke-linejoin="round"/>
<path d="M49.25 35.197C49.25 45.322 38 53.197 38 53.197C38 53.197 26.75 45.322 26.75 35.197C26.75 32.2133 27.9353 29.3518 30.045 27.242C32.1548 25.1322 35.0163 23.947 38 23.947C40.9837 23.947 43.8452 25.1322 45.955 27.242C48.0647 29.3518 49.25 32.2133 49.25 35.197Z" stroke="black" stroke-width="1.4" stroke-linecap="round" stroke-linejoin="round"/>
</g>
<defs>
<linearGradient id="paint0_linear_116_6778" x1="22.3769" y1="27.6233" x2="33.5169" y2="78.0587" gradientUnits="userSpaceOnUse">
<stop stop-color="#F4D5FA"/>
<stop offset="1" stop-color="#F891FE"/>
</linearGradient>
<clipPath id="clip0_116_6778">
<rect width="36" height="36" fill="white" transform="translate(20 20.572)"/>
</clipPath>
</defs>
</svg>
