<svg id="line" xmlns="http://www.w3.org/2000/svg" viewBox="0 0 64 64"><defs><style>.cls-1{fill:#c4a2fc;}.cls-2{fill:#151a6a;}</style></defs><path class="cls-1" d="M60,21H20a3,3,0,0,0-3,3V47H63V24A3,3,0,0,0,60,21Z"/><path class="cls-1" d="M17,52a3,3,0,0,0,3,3H50V52a1,1,0,0,1,2,0v3h3V52a1,1,0,0,1,2,0v3h3a3,3,0,0,0,3-3V49H17Z"/><path class="cls-1" d="M51,61a3,3,0,0,1-3-3V57H32v1a3,3,0,0,1-3,3,1,1,0,0,0,0,2H51a1,1,0,0,0,0-2Z"/><path class="cls-2" d="M42.37,9.07l-20-8a1,1,0,0,0-.74,0l-20,8A1,1,0,0,0,1,10v7.64A37,37,0,0,0,21.55,50.9a1,1,0,0,0,.9,0A37,37,0,0,0,43,17.64V10A1,1,0,0,0,42.37,9.07ZM41,17.64A35,35,0,0,1,22,48.88,35,35,0,0,1,3,17.64v-7l19-7.6,19,7.6Z"/><path class="cls-2" d="M22,5a1,1,0,0,0-.91.6L5.63,11.78a1,1,0,0,0-.63.93v4.93A32.81,32.81,0,0,0,21.5,46.32a1,1,0,0,0,1,0A32.81,32.81,0,0,0,39,17.64V12.71a1,1,0,0,0-.63-.93L22.91,5.6A1,1,0,0,0,22,5ZM7,13.39l14-5.6V21H7.19A31.24,31.24,0,0,1,7,17.64ZM7.46,23H21V43.65A30.71,30.71,0,0,1,7.46,23ZM23,43.65V23H36.54A30.71,30.71,0,0,1,23,43.65Zm14-26A31.24,31.24,0,0,1,36.81,21H23V7.79l14,5.6Z"/></svg>