<?xml version="1.0" encoding="utf-8"?>
<!-- Generator: Adobe Illustrator 26.1.0, SVG Export Plug-In . SVG Version: 6.00 Build 0)  -->
<svg version="1.1" id="Layer_1" xmlns="http://www.w3.org/2000/svg" xmlns:xlink="http://www.w3.org/1999/xlink" x="0px" y="0px"
	 width="243.8px" height="58px" viewBox="0 0 243.8 58" style="enable-background:new 0 0 243.8 58;" xml:space="preserve">
<style type="text/css">
	.st0{fill:#FFFFFF;}
</style>
<g>
	<g>
		<path class="st0" d="M0.9,0.6h17.4c6.1,0,10.4,3.8,10.4,9.1c0,3.8-1.9,6.2-5.2,8.1c4.3,2.1,6.7,5.4,6.7,9.4c0,5.9-4.7,10-11.2,10
			H0.9V0.6z M17,15.9c3.7,0,6.3-2.2,6.3-5.2c0-3-2.6-5.3-6.3-5.3H6.3v10.5H17z M17.8,32.5c4.1,0,7-2.5,7-6s-2.9-6-7-6H6.3v12H17.8z"
			/>
		<path class="st0" d="M56,30.2l3.3,3.4c-2.5,2.6-7.2,4.3-11.1,4.3c-7.7,0-14.2-6-14.2-14.5c0-8.3,6.1-14.3,13.8-14.3
			c8.4,0,13.3,6.4,13.3,16.3H39.3c0.7,4.6,4.1,7.9,8.8,7.9C51,33.2,54.3,31.9,56,30.2z M39.3,21.1h16.5c-0.6-4.3-3.2-7.4-7.9-7.4
			C43.7,13.8,40.2,16.6,39.3,21.1z"/>
		<path class="st0" d="M90.1,19.7v17.5H85V20.6c0-4.1-2.6-7-6.3-7c-3.8,0-7.1,2.5-7.6,5.8v17.9h-5.3V9.7h5.3v4
			c1.7-2.7,5-4.6,8.7-4.6C85.9,9.1,90.1,13.5,90.1,19.7z"/>
		<path class="st0" d="M122.8,0v37.3h-5.2v-4.8c-2.1,3.4-5.5,5.4-9.8,5.4c-7.2,0-12.7-6-12.7-14.4c0-8.4,5.4-14.4,12.7-14.4
			c4.3,0,7.7,2,9.8,5.4V0H122.8z M117.6,23.5c0-5.8-3.6-9.8-8.5-9.8c-5.1,0-8.6,4.1-8.6,9.8c0,5.8,3.6,9.9,8.6,9.9
			C114,33.3,117.6,29.2,117.6,23.5z"/>
		<path class="st0" d="M129.2,0.6h13.4c12.6,0,21.4,7.6,21.4,18.3c0,10.7-8.8,18.3-21.4,18.3h-13.4V0.6z M143.9,29
			c6.2,0,10.7-4.2,10.7-10.1c0-5.9-4.5-10-10.7-10h-5.7V29H143.9z"/>
		<path class="st0" d="M190.1,31.9h-14.5l-2.1,5.3h-10.2l14.5-36.6H188l14.5,36.6h-10.2L190.1,31.9z M187.3,24.8l-4.4-11.2
			l-4.4,11.2H187.3z"/>
		<path class="st0" d="M203.5,18.9c0-10.3,9-18.9,19.7-18.9c10.7,0,19.7,8.6,19.7,18.9c0,10.3-9,19-19.7,19
			C212.5,37.9,203.5,29.2,203.5,18.9z M233.5,18.9c0-5.8-4.7-10.7-10.3-10.7c-5.6,0-10.3,4.9-10.3,10.7c0,5.8,4.7,10.7,10.3,10.7
			C228.8,29.6,233.5,24.7,233.5,18.9z"/>
	</g>
	<g>
		<path class="st0" d="M3.2,54.7L0,49.8h1.4l2.4,3.8l2.5-3.8h1.4l-3.2,4.9v3.2H3.2V54.7z"/>
		<path class="st0" d="M11.6,53.8c0-2.3,1.9-4.2,4.2-4.2s4.2,1.9,4.2,4.2S18.1,58,15.8,58S11.6,56.1,11.6,53.8z M18.8,53.8
			c0-1.7-1.4-3.1-3-3.1s-3,1.4-3,3.1c0,1.7,1.4,3.1,3,3.1S18.8,55.5,18.8,53.8z"/>
		<path class="st0" d="M24.8,54.5v-4.7h1.2v4.7c0,1.5,0.9,2.5,2.3,2.5c1.3,0,2.3-1,2.3-2.5v-4.7h1.2v4.7c0,2.1-1.5,3.6-3.5,3.6
			C26.2,58,24.8,56.6,24.8,54.5z"/>
		<path class="st0" d="M41.1,55l2.1,2.9h-1.4l-2-2.8h-1.9v2.8h-1.2v-8.1h3.4c1.7,0,3,1.1,3,2.6C43.2,53.7,42.3,54.6,41.1,55z
			 M37.9,54H40c1.2,0,2-0.6,2-1.5c0-1-0.8-1.5-2-1.5h-2.1V54z"/>
		<path class="st0" d="M53.8,49.8h1.3l2,6.2l2-6.2h1.3l2,6.2l2-6.2h1.3l-2.7,8.1h-1.2l-2.1-6.5l-2.2,6.5h-1.2L53.8,49.8z"/>
		<path class="st0" d="M71.4,50.9v2.3h4.3v1.1h-4.3v2.5h4.8v1.1h-6v-8.1h6v1.1H71.4z"/>
		<path class="st0" d="M81,49.8h3.9c1.4,0,2.3,0.8,2.3,2c0,0.9-0.4,1.4-1.2,1.8c0.9,0.5,1.5,1.2,1.5,2.1c0,1.3-1,2.2-2.5,2.2h-4
			V49.8z M84.6,53.2c0.8,0,1.4-0.5,1.4-1.2c0-0.7-0.6-1.2-1.4-1.2h-2.4v2.3H84.6z M84.8,56.8c0.9,0,1.5-0.6,1.5-1.3
			c0-0.8-0.6-1.3-1.5-1.3h-2.5v2.7H84.8z"/>
		<path class="st0" d="M91.7,56.7l0.8-0.8c0.5,0.7,1.3,1.1,2.3,1.1c1.1,0,1.7-0.6,1.7-1.4c0-0.8-0.7-1.3-1.9-1.3h-0.9v-1.1l0.9,0
			c1,0,1.7-0.4,1.7-1.3c0-0.8-0.7-1.3-1.7-1.3c-0.9,0-1.5,0.4-2,1.1l-0.7-0.7c0.6-0.8,1.5-1.4,2.9-1.4c1.6,0,2.8,0.9,2.8,2.2
			c0,1-0.7,1.6-1.6,1.9c0.9,0.2,1.7,0.8,1.7,1.9c0,1.4-1.2,2.4-2.9,2.4C93.4,58,92.4,57.4,91.7,56.7z"/>
		<path class="st0" d="M109.1,49.8h2.8c2.6,0,4.5,1.7,4.5,4.1s-1.9,4.1-4.5,4.1h-2.8V49.8z M112,56.8c1.9,0,3.2-1.2,3.2-3
			c0-1.7-1.3-3-3.2-3h-1.7v5.9H112z"/>
		<path class="st0" d="M126.3,56.2H122l-0.7,1.7H120l3.5-8.1h1.3l3.5,8.1H127L126.3,56.2z M125.8,55.2l-1.7-3.9l-1.7,3.9H125.8z"/>
		<path class="st0" d="M134.2,50.9h-2.7v-1.1h6.5v1.1h-2.7v7h-1.2V50.9z"/>
		<path class="st0" d="M147.5,56.2h-4.2l-0.7,1.7h-1.3l3.5-8.1h1.3l3.5,8.1h-1.3L147.5,56.2z M147.1,55.2l-1.7-3.9l-1.7,3.9H147.1z"
			/>
		<path class="st0" d="M165.9,56.8v1.1h-5.5v-8.1h1.2v7H165.9z"/>
		<path class="st0" d="M170.4,49.8h1.2v8.1h-1.2V49.8z"/>
		<path class="st0" d="M183.8,56.3l0.9,0.7l-0.7,0.8l-0.9-0.8c-0.7,0.6-1.6,0.9-2.6,0.9c-2.3,0-4.2-1.9-4.2-4.2s1.9-4.2,4.2-4.2
			c2.3,0,4.2,1.9,4.2,4.2C184.6,54.8,184.3,55.6,183.8,56.3z M182.2,56.3l-1.2-1l0.7-0.8l1.2,1c0.3-0.5,0.5-1.1,0.5-1.7
			c0-1.7-1.4-3.1-3-3.1c-1.6,0-3,1.4-3,3.1c0,1.7,1.4,3.1,3,3.1C181.1,56.9,181.7,56.7,182.2,56.3z"/>
		<path class="st0" d="M189.3,54.5v-4.7h1.2v4.7c0,1.5,0.9,2.5,2.3,2.5c1.3,0,2.3-1,2.3-2.5v-4.7h1.2v4.7c0,2.1-1.5,3.6-3.5,3.6
			C190.8,58,189.3,56.6,189.3,54.5z"/>
		<path class="st0" d="M201.3,49.8h1.2v8.1h-1.2V49.8z"/>
		<path class="st0" d="M207.7,49.8h2.8c2.6,0,4.5,1.7,4.5,4.1s-1.9,4.1-4.5,4.1h-2.8V49.8z M210.5,56.8c1.9,0,3.2-1.2,3.2-3
			c0-1.7-1.3-3-3.2-3h-1.7v5.9H210.5z"/>
		<path class="st0" d="M219.7,49.8h1.2v8.1h-1.2V49.8z"/>
		<path class="st0" d="M228.1,50.9h-2.7v-1.1h6.5v1.1h-2.7v7h-1.2V50.9z"/>
		<path class="st0" d="M239.1,54.7l-3.2-4.9h1.4l2.4,3.8l2.5-3.8h1.4l-3.2,4.9v3.2h-1.2V54.7z"/>
	</g>
</g>
</svg>
