<svg id="line" xmlns="http://www.w3.org/2000/svg" viewBox="0 0 64 64"><defs><style>.cls-1{fill:#c4a2fc;}.cls-2{fill:#151a6a;}</style></defs><path class="cls-1" d="M47.94,34.26H35.17a49.25,49.25,0,0,0-.6,7h14A49.32,49.32,0,0,0,47.94,34.26Z"/><path class="cls-1" d="M49.62,32.26H60A21,21,0,0,0,44.65,21.51C46.86,23.38,48.62,27.21,49.62,32.26Z"/><path class="cls-1" d="M49.62,52.26c-1,5-2.76,8.87-5,10.74A21,21,0,0,0,60,52.26Z"/><path class="cls-1" d="M35.54,52.26c1.32,6.17,3.75,10,6,10s4.69-3.83,6-10Z"/><path class="cls-1" d="M50.53,41.26h12a20.88,20.88,0,0,0-1.54-7H50A52.12,52.12,0,0,1,50.53,41.26Z"/><path class="cls-1" d="M61,50.26a21,21,0,0,0,1.54-7h-12a52.39,52.39,0,0,1-.56,7Z"/><path class="cls-1" d="M48.53,43.26h-14a49.51,49.51,0,0,0,.6,7H47.94A49.58,49.58,0,0,0,48.53,43.26Z"/><path class="cls-1" d="M47.56,32.26c-1.32-6.18-3.75-10-6-10s-4.69,3.82-6,10Z"/><path class="cls-1" d="M22.14,34.26a20.88,20.88,0,0,0-1.54,7h12a52.12,52.12,0,0,1,.56-7Z"/><path class="cls-1" d="M33.48,52.26H23.09A21,21,0,0,0,38.45,63C36.24,61.13,34.48,57.3,33.48,52.26Z"/><path class="cls-1" d="M33.48,32.26c1-5,2.76-8.88,5-10.75A21,21,0,0,0,23.09,32.26Z"/><path class="cls-1" d="M32.57,43.26h-12a21,21,0,0,0,1.54,7h11A52.39,52.39,0,0,1,32.57,43.26Z"/><path class="cls-2" d="M40.5,1H4.5a3,3,0,0,0-3,3V40a3,3,0,0,0,3,3h36a3,3,0,0,0,3-3V4A3,3,0,0,0,40.5,1Zm1,3V7H18.12l-2-4H40.5A1,1,0,0,1,41.5,4ZM4.5,3h9.38l2,4H3.5V4A1,1,0,0,1,4.5,3Zm36,38H4.5a1,1,0,0,1-1-1V9h38V40A1,1,0,0,1,40.5,41Z"/><path class="cls-2" d="M35.5,14h-6a3,3,0,0,0-3,3V33a3,3,0,0,0,3,3h6a3,3,0,0,0,3-3V17A3,3,0,0,0,35.5,14Zm1,19a1,1,0,0,1-1,1h-6a1,1,0,0,1-1-1V17a1,1,0,0,1,1-1h6a1,1,0,0,1,1,1Z"/><path class="cls-2" d="M22.5,15H7.5a1,1,0,0,0,0,2h15a1,1,0,0,0,0-2Z"/><path class="cls-2" d="M22.5,21H7.5a1,1,0,0,0,0,2h15a1,1,0,0,0,0-2Z"/><path class="cls-2" d="M22.5,27H7.5a1,1,0,0,0,0,2h15a1,1,0,0,0,0-2Z"/><path class="cls-2" d="M22.5,33H7.5a1,1,0,0,0,0,2h15a1,1,0,0,0,0-2Z"/></svg>