<svg id="line" xmlns="http://www.w3.org/2000/svg" viewBox="0 0 64 64"><defs><style>.cls-1{fill:#c4a2fc;}.cls-2{fill:#151a6a;}</style></defs><path class="cls-1" d="M33.59,35.16c-4,2-5.54,4.39-8.18,6.84,2.68,2.48,4.21,4.83,8.18,6.84a10.81,10.81,0,0,1,0-13.68Z"/><path class="cls-1" d="M42,33.15A8.85,8.85,0,1,0,50.85,42,8.86,8.86,0,0,0,42,33.15ZM42,47a5,5,0,1,1,5-5A5,5,0,0,1,42,47Z"/><circle class="cls-1" cx="42" cy="42" r="3.03"/><path class="cls-1" d="M42,21A21,21,0,1,0,63,42,21,21,0,0,0,42,21Zm0,31.85c-11.36,0-16.25-8.26-18.71-10.14a1,1,0,0,1,0-1.42C25.78,39.38,30.75,31.15,42,31.15s16.25,8.26,18.71,10.14a1,1,0,0,1,0,1.42C58.22,44.62,53.25,52.85,42,52.85Z"/><path class="cls-1" d="M50.41,35.16a10.81,10.81,0,0,1,0,13.68c4-2,5.54-4.39,8.18-6.84C55.91,39.52,54.38,37.17,50.41,35.16Z"/><path class="cls-2" d="M43,6a5,5,0,0,0-5-5H6a5,5,0,0,0-1,9.9V25a17,17,0,0,0,34,0V10.9A5,5,0,0,0,43,6ZM37,25A15,15,0,0,1,7,25V11H37ZM38,9H6A3,3,0,0,1,6,3H38a3,3,0,0,1,0,6Z"/><path class="cls-2" d="M22,35A10,10,0,1,0,12,25,10,10,0,0,0,22,35Zm0-18a8,8,0,1,1-8,8A8,8,0,0,1,22,17Z"/><path class="cls-2" d="M22,21.5A3.5,3.5,0,1,0,25.5,25,3.5,3.5,0,0,0,22,21.5Zm0,5A1.5,1.5,0,1,1,23.5,25,1.5,1.5,0,0,1,22,26.5Z"/></svg>