<svg id="line" xmlns="http://www.w3.org/2000/svg" viewBox="0 0 64 64"><defs><style>.cls-1{fill:#c4a2fc;}.cls-2{fill:#151a6a;}</style></defs><path class="cls-1" d="M61.82,19a22.33,22.33,0,0,1-19.16-5.77,1,1,0,0,0-1.32,0A21.87,21.87,0,0,1,22.18,19,1,1,0,0,0,21,20v9.64A37,37,0,0,0,41.55,62.89a1,1,0,0,0,.9,0A37,37,0,0,0,63,29.64V20A1,1,0,0,0,61.82,19ZM52.11,34.08,40.8,43.46a1,1,0,0,1-1.16.08L32,38.8a1,1,0,0,1,1.06-1.7l7,4.37,10.75-8.93a1,1,0,0,1,1.41.13A1,1,0,0,1,52.11,34.08Z"/><path class="cls-2" d="M23,5a10.36,10.36,0,0,0-8.25,4.4,1,1,0,0,0,1.6,1.2A8.38,8.38,0,0,1,23,7a1,1,0,0,0,0-2Z"/><path class="cls-2" d="M45,17.52A4.61,4.61,0,0,0,45,17,10,10,0,0,0,35,7l-.56,0A14.27,14.27,0,0,0,23,1C15,1,8.4,8.18,8,17.23A9,9,0,0,0,10,35H42a9,9,0,0,0,3-17.48ZM42,33H10a7,7,0,0,1-.87-13.94A1.07,1.07,0,0,0,10,18C10,9.73,15.83,3,23,3A12.36,12.36,0,0,1,33.14,8.64c.44.63,1,.36,1.86.36a8,8,0,0,1,8,8,7.72,7.72,0,0,1-.09,1.1,1,1,0,0,0,.76,1.11A7,7,0,0,1,42,33Z"/></svg>