<svg id="line" xmlns="http://www.w3.org/2000/svg" viewBox="0 0 64 64"><defs><style>.cls-1{fill:#c4a2fc;}.cls-2{fill:#151a6a;}</style></defs><path class="cls-1" d="M60,12H32a3,3,0,0,0-3,3v3H47.17a3,3,0,0,1,2.12.88l6.83,6.83A3,3,0,0,1,57,27.83V54h3a3,3,0,0,0,3-3V15A3,3,0,0,0,60,12Z"/><polygon class="cls-1" points="48 27 54.59 27 48 20.41 48 27"/><path class="cls-1" d="M46,28V20H24a3,3,0,0,0-3,3V59a3,3,0,0,0,3,3H52a3,3,0,0,0,3-3V29H47A1,1,0,0,1,46,28Zm2,22H28a1,1,0,0,1,0-2H48a1,1,0,0,1,0,2Zm0-8H28a1,1,0,0,1,0-2H48a1,1,0,0,1,0,2Zm1-9a1,1,0,0,1-1,1H28a1,1,0,0,1,0-2H48A1,1,0,0,1,49,33Z"/><path class="cls-2" d="M40,7H29.41l-2-3.48A3,3,0,0,0,24.83,2H4A3,3,0,0,0,1,5V33a3,3,0,0,0,3,3H40a3,3,0,0,0,3-3V10A3,3,0,0,0,40,7ZM25.7,4.51,27.11,7h-9a1,1,0,0,1-.86-.49L15.77,4h9.06A1,1,0,0,1,25.7,4.51ZM41,33a1,1,0,0,1-1,1H4a1,1,0,0,1-1-1V5A1,1,0,0,1,4,4h9.43l2.13,3.54A3,3,0,0,0,18.13,9H40a1,1,0,0,1,1,1Z"/><path class="cls-2" d="M38,26H6a1,1,0,0,0,0,2H38a1,1,0,0,0,0-2Z"/></svg>