<svg id="line" xmlns="http://www.w3.org/2000/svg" viewBox="0 0 64 64"><defs><style>.cls-1{fill:#c4a2fc;}.cls-2{fill:#151a6a;}</style></defs><rect class="cls-1" x="19" y="21" width="38" height="25" rx="3"/><path class="cls-1" d="M62.68,59.16l-5.24-9.6A3,3,0,0,0,54.81,48H21.19a3,3,0,0,0-2.64,1.56l-5.23,9.6A2.59,2.59,0,0,0,15.59,63H27.68l2.38-6.35A1,1,0,0,1,31,56H45a1,1,0,0,1,.93.65L48.32,63H60.4A2.6,2.6,0,0,0,62.68,59.16Z"/><polygon class="cls-1" points="31.69 58 29.82 63 46.18 63 44.3 58 31.69 58"/><path class="cls-2" d="M39,8.62v-5a2.62,2.62,0,0,0-3.79-2.34L30,3.88l-5.21-2.6A2.62,2.62,0,0,0,21,3.62v5A3,3,0,0,0,23,11.43l3.49,1.31A9,9,0,0,0,21,21V36.17a3,3,0,0,0,.88,2.12l6,6a3,3,0,0,0,4.24,0l6-6A3,3,0,0,0,39,36.17V21a9,9,0,0,0-5.45-8.26l3.5-1.32A3,3,0,0,0,39,8.62Zm-16,0v-5a.61.61,0,0,1,.89-.55L29,5.62v5.94l-5.35-2A1,1,0,0,1,23,8.62ZM37,32H23V25H37Zm-.29,4.88-6,6a1,1,0,0,1-1.42,0l-6-6a1,1,0,0,1-.29-.71V34H37v2.17A1,1,0,0,1,36.71,36.88ZM37,21v2H23V21a7,7,0,0,1,14,0ZM37,8.62a1,1,0,0,1-.65.93l-5.35,2V5.62l5.11-2.55a.63.63,0,0,1,.89.55Z"/><path class="cls-2" d="M15.21,1.28,10,3.88,4.79,1.28A2.62,2.62,0,0,0,1,3.62v5a3,3,0,0,0,2,2.81l3.49,1.31A9,9,0,0,0,1,21V36.17a3,3,0,0,0,.88,2.12l6,6a3,3,0,0,0,4.24,0l6-6A3,3,0,0,0,19,36.17V21a9,9,0,0,0-5.45-8.26l3.5-1.32A3,3,0,0,0,19,8.62v-5A2.62,2.62,0,0,0,15.21,1.28ZM3,8.62v-5a.61.61,0,0,1,.89-.55L9,5.62v5.94l-5.35-2A1,1,0,0,1,3,8.62ZM17,32H3V25H17Zm-.29,4.88-6,6a1,1,0,0,1-1.42,0l-6-6A1,1,0,0,1,3,36.17V34H17v2.17A1,1,0,0,1,16.71,36.88ZM17,21v2H3V21a7,7,0,0,1,14,0ZM17,8.62a1,1,0,0,1-.65.93l-5.35,2V5.62l5.11-2.55a.63.63,0,0,1,.89.55Z"/></svg>