<svg id="line" xmlns="http://www.w3.org/2000/svg" viewBox="0 0 64 64"><defs><style>.cls-1{fill:#c4a2fc;}.cls-2{fill:#151a6a;}</style></defs><polygon class="cls-1" points="26.5 47.24 40.5 56.09 40.5 33 26.5 33 26.5 47.24"/><polygon class="cls-1" points="42.5 56.09 56.5 47.24 56.5 33 42.5 33 42.5 56.09"/><path class="cls-1" d="M26.5,31h14V19a33.1,33.1,0,0,0-14,3.9Z"/><path class="cls-1" d="M42.5,31h14V22.93a33.1,33.1,0,0,0-14-3.9Z"/><path class="cls-1" d="M62,19.14C48.4,11,34.6,11,21,19.14a1,1,0,0,0-.49.86V48.9a3,3,0,0,0,1.4,2.53L39.12,62.31a4.45,4.45,0,0,0,4.76,0L61.1,51.43a3,3,0,0,0,1.4-2.53V20A1,1,0,0,0,62,19.14ZM58.5,47.8a1,1,0,0,1-.47.84L42.29,58.58a1,1,0,0,1-1.58,0L25,48.64a1,1,0,0,1-.47-.84V22.33a1,1,0,0,1,.53-.88A34.8,34.8,0,0,1,41.5,17,34.8,34.8,0,0,1,58,21.45a1,1,0,0,1,.53.88Z"/><path class="cls-2" d="M48.5,1H4.5a3,3,0,0,0-3,3V32a3,3,0,0,0,3,3h44a3,3,0,0,0,3-3V4A3,3,0,0,0,48.5,1ZM4.5,3h44a1,1,0,0,1,1,1V6H3.5V4A1,1,0,0,1,4.5,3Zm45,9H3.5V8h46Zm-1,21H4.5a1,1,0,0,1-1-1V14h46V32A1,1,0,0,1,48.5,33Z"/><path class="cls-2" d="M21.5,17H6.5a1,1,0,0,0,0,2h15a1,1,0,0,0,0-2Z"/><path class="cls-2" d="M42.21,20.05a1,1,0,0,0-1.42,0l-4.24,4.24a1,1,0,0,0,0,1.42L40.79,30a1,1,0,0,0,1.42,0l4.24-4.24a1,1,0,0,0,0-1.42Zm-.71,7.78L38.67,25l2.83-2.83L44.33,25Z"/></svg>