<svg id="line" xmlns="http://www.w3.org/2000/svg" viewBox="0 0 64 64"><defs><style>.cls-1{fill:#c4a2fc;}.cls-2{fill:#151a6a;}</style></defs><path class="cls-1" d="M58,21H22a3,3,0,0,0-3,3V60a3,3,0,0,0,3,3H58a3,3,0,0,0,3-3V24A3,3,0,0,0,58,21ZM35,56H27a1,1,0,0,1-1-1V47a1,1,0,0,1,2,0v7h7a1,1,0,0,1,0,2Zm0-26H28v7a1,1,0,0,1-2,0V29a1,1,0,0,1,1-1h8a1,1,0,0,1,0,2ZM54,55a1,1,0,0,1-1,1H45a1,1,0,0,1,0-2h7V47a1,1,0,0,1,2,0Zm0-18a1,1,0,0,1-2,0V30H45a1,1,0,0,1,0-2h8a1,1,0,0,1,1,1Z"/><path class="cls-2" d="M32,5.93a1,1,0,0,0-1.41,1.42A14.91,14.91,0,0,1,35,18v8a15,15,0,0,1-7.5,13,1,1,0,0,0-.36,1.37,1,1,0,0,0,1.36.36A17.06,17.06,0,0,0,37,26V18A16.9,16.9,0,0,0,32,5.93Z"/><path class="cls-2" d="M4,19a1,1,0,0,0,1-1A15,15,0,0,1,27.5,5a1,1,0,0,0,1.37-.37,1,1,0,0,0-.37-1.36A17,17,0,0,0,3,18,1,1,0,0,0,4,19Z"/><path class="cls-2" d="M20,41A15,15,0,0,1,5,26a1,1,0,0,0-2,0A17,17,0,0,0,20,43a1,1,0,0,0,0-2Z"/><path class="cls-2" d="M20,7A11,11,0,0,0,9,18v8a10.88,10.88,0,0,0,2.2,6.59,1,1,0,0,0,1.6-1.2A8.89,8.89,0,0,1,11,26V18a9,9,0,0,1,16.21-5.39,1,1,0,0,0,1.6-1.19A11.07,11.07,0,0,0,20,7Z"/><path class="cls-2" d="M20,35a8.81,8.81,0,0,1-4-.93,1,1,0,0,0-.89,1.8A11,11,0,0,0,31,26V18a1,1,0,0,0-2,0v8A9,9,0,0,1,20,35Z"/><path class="cls-2" d="M16,23a1,1,0,0,0,1-1V18a3,3,0,0,1,6,0,1,1,0,0,0,2,0,5,5,0,0,0-10,0v4A1,1,0,0,0,16,23Z"/><path class="cls-2" d="M20,31a5,5,0,0,0,5-5V22a1,1,0,0,0-2,0v4a3,3,0,0,1-6,0,1,1,0,0,0-2,0A5,5,0,0,0,20,31Z"/></svg>