<svg id="line" xmlns="http://www.w3.org/2000/svg" viewBox="0 0 64 64"><defs><style>.cls-1{fill:#c4a2fc;}.cls-2{fill:#151a6a;}</style></defs><path class="cls-1" d="M56.92,24.56a1,1,0,0,0-1.18-.39,14.58,14.58,0,0,0-4.08,2.39,24.12,24.12,0,0,0-3-6.9,26.36,26.36,0,0,1-3.17-7.4A1,1,0,0,0,44,11.7,54.46,54.46,0,0,0,35,20.6c-5.86,7.32-8.95,15.08-8.95,22.45a18.46,18.46,0,0,0,36.91,0C63,37,61,30.73,56.92,24.56ZM44.55,58.5A10.47,10.47,0,0,1,34.09,48.05c0-9.85,9.45-17,9.86-17.35a1,1,0,0,1,1.57.56c.74,3,2.14,5.76,3,8.74.59-1,1.19-2.33,2-2.61a1,1,0,0,1,1.18.39A18.71,18.71,0,0,1,55,48.05,10.46,10.46,0,0,1,44.55,58.5Z"/><path class="cls-1" d="M48.71,43.21a1,1,0,0,1-1.7-.57c-.45-3.12-2-6.14-3-9.37-2.44,2.19-7.91,7.87-7.91,14.78a8.46,8.46,0,0,0,16.91,0,16,16,0,0,0-2.29-7.93A15.45,15.45,0,0,1,48.71,43.21Z"/><path class="cls-2" d="M41,9.32A3,3,0,0,0,43,6.5v-1a3,3,0,0,0-3-3H4a3,3,0,0,0-3,3v1A3,3,0,0,0,3,9.32V31.68A3,3,0,0,0,1,34.5v1a3,3,0,0,0,3,3H40a3,3,0,0,0,3-3v-1a3,3,0,0,0-2-2.82ZM5,31.5v-6H21v6Zm34-22v6H23v-6Zm-24,14v-6H29v6Zm-10,0v-6h8v6Zm26-6h8v6H31Zm-10-2H5v-6H21Zm2,10H39v6H23ZM3,5.5a1,1,0,0,1,1-1H40a1,1,0,0,1,1,1v1a1,1,0,0,1-1,1H4a1,1,0,0,1-1-1Zm38,30a1,1,0,0,1-1,1H4a1,1,0,0,1-1-1v-1a1,1,0,0,1,1-1H40a1,1,0,0,1,1,1Z"/></svg>