<svg id="line" xmlns="http://www.w3.org/2000/svg" viewBox="0 0 64 64"><defs><style>.cls-1{fill:#c4a2fc;}.cls-2{fill:#151a6a;}</style></defs><path class="cls-1" d="M59,31a3,3,0,0,0-3-3H20a3,3,0,0,0-3,3V52H59Z"/><path class="cls-1" d="M62,54H45a1,1,0,0,0-1,.68A3.37,3.37,0,0,1,40.84,57H35.16A3.37,3.37,0,0,1,32,54.68,1,1,0,0,0,31,54H14a1,1,0,0,0-1,1,7,7,0,0,0,7,7H56a7,7,0,0,0,7-7A1,1,0,0,0,62,54Z"/><path class="cls-2" d="M29.44,15.93c0-6.58-4.13-8.93-8-8.93s-8,2.35-8,8.93c0,6,3.49,13.07,8,13.07S29.44,22,29.44,15.93ZM21.44,27c-2.92,0-6-5.69-6-11.07,0-4.4,2.19-6.93,6-6.93s6,2.53,6,6.93C27.44,21.31,24.36,27,21.44,27Z"/><path class="cls-2" d="M41.79,40.27l-2.24-9A7,7,0,0,0,32.76,26H30.51a24.91,24.91,0,0,0,2.93-11.5c0-7.71-4.6-12.5-12-12.5s-12,4.79-12,12.5A24.91,24.91,0,0,0,12.37,26H10.12a7,7,0,0,0-6.79,5.3l-2.24,9A3,3,0,0,0,4,44H38.88A3,3,0,0,0,41.79,40.27ZM38.88,42H34.31l-.88-6.14a1,1,0,0,0-2,.28L32.29,42H22.44V32a1,1,0,0,0-2,0V42H10.59l.84-5.86a1,1,0,1,0-2-.28L8.57,42H4a1,1,0,0,1-1-1.24l2.24-9A5,5,0,0,1,10.12,28H13.6A15.17,15.17,0,0,0,16,30.75a1,1,0,1,0,1.32-1.5c-3.42-3-5.9-9.18-5.9-14.75,0-6.67,3.64-10.5,10-10.5s10,3.83,10,10.5c0,5.57-2.48,11.77-5.9,14.75a1,1,0,1,0,1.32,1.5A15.17,15.17,0,0,0,29.28,28h3.48a5,5,0,0,1,4.85,3.79l2.24,9A1,1,0,0,1,38.88,42Z"/><circle class="cls-2" cx="21.44" cy="22.97" r="1.03"/><path class="cls-2" d="M21.51,12a3.44,3.44,0,0,0-3.42,2.91,3.59,3.59,0,0,0,0,.47,1,1,0,1,0,2,0,1.28,1.28,0,0,1,0-.19A1.39,1.39,0,0,1,21.44,14h0a1.38,1.38,0,0,1,1.35,1.31,1.37,1.37,0,0,1-.38,1,1.39,1.39,0,0,1-1,.43,1,1,0,0,0-1,1v2.49a1,1,0,0,0,2,0V18.61a3.29,3.29,0,0,0,1.45-.9,3.33,3.33,0,0,0,.93-2.5A3.4,3.4,0,0,0,21.51,12Z"/></svg>