<svg id="line" xmlns="http://www.w3.org/2000/svg" viewBox="0 0 64 64"><defs><style>.cls-1{fill:#c4a2fc;}.cls-2{fill:#151a6a;}</style></defs><path class="cls-1" d="M58,27H55V24a13,13,0,0,0-26,0v3H26a5,5,0,0,0-5,5v8a21,21,0,0,0,42,0V32A5,5,0,0,0,58,27ZM45,48.12a3.12,3.12,0,1,1-6.06,0l1.15-4.61a4,4,0,1,1,3.76,0ZM51,27H33V24a9,9,0,0,1,18,0Z"/><path class="cls-2" d="M42.62,15.18,31.9,4.46a5,5,0,0,0-7.4.37l-7.64,9.34a5,5,0,0,0,.33,6.7l.27.27L1.88,36.72A3,3,0,0,0,1,39.17L1.44,43a3,3,0,0,0,2.65,2.65l3.82.43a3,3,0,0,0,2.45-.86l.74-.74a3,3,0,0,0,0-4.24l-.71-.71h0A1,1,0,0,1,10.53,38a1.08,1.08,0,0,1,1.35.19l.63.63a3,3,0,0,0,4.25-4.24l-.64-.63a1.1,1.1,0,0,1-.19-1.36,1,1,0,0,1,1.53-.13l.71.71a3,3,0,0,0,4.24,0L26,29.62l.27.27a5,5,0,0,0,6.7.33l9.33-7.63A5,5,0,0,0,42.62,15.18ZM21,31.74a1,1,0,0,1-1.42,0l-.7-.7a3,3,0,0,0-4.57.38,3.1,3.1,0,0,0,.4,3.94l.63.63a1,1,0,1,1-1.41,1.41l-.63-.63a3.1,3.1,0,0,0-3.94-.4A3,3,0,0,0,9,40.94l.7.7a1,1,0,0,1,0,1.42L9,43.79a1,1,0,0,1-.82.29l-3.82-.43a1,1,0,0,1-.88-.88L3,39a1,1,0,0,1,.28-.82L18.88,22.55l5.65,5.66ZM41,21l-9.34,7.64a3,3,0,0,1-4-.2l-9-9a3,3,0,0,1-.2-4L26.05,6.1a3,3,0,0,1,4.44-.22L41.21,16.6A3,3,0,0,1,41,21Z"/><path class="cls-2" d="M28.42,11.59c-1.6,1.61-.6,4.35,1.06,6s4.44,2.63,6,1.06h0c1.39-1.39.93-4-1.06-6S29.81,10.2,28.42,11.59Zm5.66,5.66c-.5.5-2,.15-3.18-1.06-.79-.79-1.74-2.51-1.06-3.18s2.26.14,3.18,1.06C34.23,15.28,34.58,16.75,34.08,17.25Z"/></svg>