<svg id="line" xmlns="http://www.w3.org/2000/svg" viewBox="0 0 64 64"><defs><style>.cls-1{fill:#c4a2fc;}.cls-2{fill:#151a6a;}</style></defs><path class="cls-1" d="M60,26H39a3,3,0,0,0-2.34,1.13l-2.8,3.49A1,1,0,0,1,33,31H16a3,3,0,0,0-3,3V60a3,3,0,0,0,3,3H60a3,3,0,0,0,3-3V29A3,3,0,0,0,60,26ZM38,57a1,1,0,0,1-1,1H19a1,1,0,0,1-1-1V49a1,1,0,0,1,1-1H37a1,1,0,0,1,1,1Z"/><rect class="cls-1" x="20" y="50" width="16" height="6"/><path class="cls-2" d="M16,37a9,9,0,1,0-9-9A9,9,0,0,0,16,37Zm0-16a7,7,0,1,1-7,7A7,7,0,0,1,16,21Z"/><path class="cls-2" d="M16,32a4,4,0,1,0-4-4A4,4,0,0,0,16,32Zm0-6a2,2,0,1,1-2,2A2,2,0,0,1,16,26Z"/><path class="cls-2" d="M46.7,17.29c-1.89-1.89-5-.68-7.82.38-1.24.48-3.31,1.27-3.76,1,0,0-.13-.19-.13-.63,0-1.35,1.35-3.56,2.65-5.7,2-3.25,4-6.62,2.7-9C39.47,1.75,37.4,1,34,1,20.71,1,6,16.75,5.36,17.42h0a15.05,15.05,0,1,0,7.21-4C18,8.84,26.4,3,34,3c2.55,0,4.14.44,4.6,1.27.77,1.37-1.13,4.48-2.66,7S33,16.09,33,18a2.57,2.57,0,0,0,1,2.28c1.31.91,3.3.14,5.6-.74,2.11-.8,4.72-1.81,5.69-.83,1.15,1.14.73,2.12-.88,4.83A20.38,20.38,0,0,0,41,33h0a1,1,0,0,0,0,2v1.13A4,4,0,1,0,46,40a1,1,0,0,0-2,0,2,2,0,1,1-2-2,1,1,0,0,0,1-1V35a1,1,0,0,0,0-2,18.43,18.43,0,0,1,3.08-8.45C47.62,22,49,19.63,46.7,17.29ZM25.18,18.81a13,13,0,1,1-18.38,0A13,13,0,0,1,25.18,18.81Z"/></svg>