<svg id="line" xmlns="http://www.w3.org/2000/svg" viewBox="0 0 64 64"><defs><style>.cls-1{fill:#c4a2fc;}.cls-2{fill:#151a6a;}</style></defs><path class="cls-1" d="M21,55H63V37H21ZM39.09,42.28a3,3,0,0,1,2.2-2.2,3,3,0,0,1,2.12,5.55l.86,3.46a2.34,2.34,0,1,1-4.54,0l.86-3.46A3,3,0,0,1,39.09,42.28Z"/><path class="cls-1" d="M21,60a3,3,0,0,0,3,3H60a3,3,0,0,0,3-3V57H21Z"/><path class="cls-1" d="M60,29H33V26a9,9,0,0,1,18,0,1,1,0,0,0,1,1h2a1,1,0,0,0,1-1,13,13,0,0,0-26,0v3H24a3,3,0,0,0-3,3v3H63V32A3,3,0,0,0,60,29Z"/><path class="cls-2" d="M22,11a5,5,0,1,0-5-5A5,5,0,0,0,22,11Zm0-8a3,3,0,1,1-3,3A3,3,0,0,1,22,3Z"/><path class="cls-2" d="M22,33a5,5,0,1,0,5,5A5,5,0,0,0,22,33Zm0,8a3,3,0,1,1,3-3A3,3,0,0,1,22,41Z"/><path class="cls-2" d="M43,22a5,5,0,0,0-4-4.9V10.9a5,5,0,1,0-5.17-2.15l-9.08,9.08a5,5,0,0,0-6.92,6.92L8.75,33.83A5,5,0,0,0,7,33.1V26.9a5,5,0,0,0,0-9.8V10.9a5,5,0,1,0-2,0v6.2a5,5,0,0,0,0,9.8v6.2a5,5,0,1,0,5.17,2.15l9.08-9.08a5,5,0,0,0,6.92-6.92l9.08-9.08A5,5,0,0,0,37,10.9v6.2a5,5,0,0,0,0,9.8v6.2a5,5,0,1,0,2,0V26.9A5,5,0,0,0,43,22ZM38,3a3,3,0,1,1-3,3A3,3,0,0,1,38,3ZM3,6A3,3,0,1,1,6,9,3,3,0,0,1,3,6ZM3,22a3,3,0,1,1,3,3A3,3,0,0,1,3,22ZM6,41a3,3,0,1,1,3-3A3,3,0,0,1,6,41ZM22,25a3,3,0,1,1,3-3A3,3,0,0,1,22,25Zm13-3a3,3,0,1,1,3,3A3,3,0,0,1,35,22Zm6,16a3,3,0,1,1-3-3A3,3,0,0,1,41,38Z"/></svg>