<svg id="line" xmlns="http://www.w3.org/2000/svg" viewBox="0 0 64 64"><defs><style>.cls-1{fill:#c4a2fc;}.cls-2{fill:#151a6a;}</style></defs><path class="cls-1" d="M42.91,42.75v5.42A3.13,3.13,0,0,0,45,45.74C45.22,44.2,44.4,43.29,42.91,42.75Z"/><path class="cls-1" d="M42,21A21,21,0,1,0,63,42,21,21,0,0,0,42,21Zm.91,30.5a1,1,0,0,1-2,0V50.32a6.24,6.24,0,0,1-3.46-1.19,1,1,0,1,1,1.1-1.68,4.38,4.38,0,0,0,2.36.88V42c-2.36-1-3.9-2.25-3.4-4.89a4.22,4.22,0,0,1,3.4-3.44V32.5a1,1,0,0,1,2,0v1a5.37,5.37,0,0,1,2.71,1.2,1,1,0,1,1-1.35,1.47,3.37,3.37,0,0,0-1.36-.63v5l1,.35a4.46,4.46,0,0,1,3.07,5.1,5.08,5.08,0,0,1-4,4.17Zm11.89.1a16.07,16.07,0,0,1-8.53,5.82,1,1,0,0,1-.54-1.92,14,14,0,0,0,7.47-5.1,1,1,0,0,1,1.6,1.2Z"/><path class="cls-1" d="M39.48,37.44c-.25,1.28.38,1.75,1.43,2.3v-4A2.23,2.23,0,0,0,39.48,37.44Z"/><path class="cls-2" d="M40,1H4A3,3,0,0,0,1,4V32a3,3,0,0,0,3,3H15.84l-.73,6H10a1,1,0,0,0,0,2H34a1,1,0,0,0,0-2H28.89l-.73-6H40a3,3,0,0,0,3-3V4A3,3,0,0,0,40,1ZM4.85,33,17.42,22.94A2.78,2.78,0,0,0,18,23h8a2.78,2.78,0,0,0,.58-.06L39.15,33ZM3,4.08l12.63,10.1A3,3,0,0,0,15,16v4a3,3,0,0,0,.63,1.82L3,31.92ZM18,21a1,1,0,0,1-1-1V16a1,1,0,0,1,1-1h8a1,1,0,0,1,1,1v4a1,1,0,0,1-1,1Zm2-8a2,2,0,0,1,4,0Zm6.58.06A2.78,2.78,0,0,0,26,13a4,4,0,0,0-8,0,2.78,2.78,0,0,0-.58.06L4.85,3h34.3Zm1.79,8.76A3,3,0,0,0,29,20V16a3,3,0,0,0-.63-1.82L41,4.08V31.92ZM26.87,41H17.13l.72-6h8.3Z"/></svg>