<svg id="line" xmlns="http://www.w3.org/2000/svg" viewBox="0 0 64 64"><defs><style>.cls-1{fill:#c4a2fc;}.cls-2{fill:#151a6a;}</style></defs><path class="cls-1" d="M62.45,20.11c-13.57-6.79-27.33-6.79-40.9,0A1,1,0,0,0,21,21v7.64A37,37,0,0,0,41.55,61.89a1,1,0,0,0,.9,0A37,37,0,0,0,63,28.64V21A1,1,0,0,0,62.45,20.11ZM52.11,34.58,40.8,44a1,1,0,0,1-1.16.08L32,39.31a1,1,0,0,1,1.06-1.7l7,4.36,10.75-8.92a1,1,0,1,1,1.28,1.53Z"/><path class="cls-2" d="M39.45,3.66A3,3,0,0,0,36.76,2H8.11A3,3,0,0,0,5.56,3.41L1.46,10A3,3,0,0,0,1,11.57V21a3,3,0,0,0,.78,2A3,3,0,0,0,1,25v8a3,3,0,0,0,3,3H40a3,3,0,0,0,3-3V25a3,3,0,0,0-.78-2A3,3,0,0,0,43,21V11.47a3,3,0,0,0-.32-1.34ZM7.26,4.47A1,1,0,0,1,8.11,4H36.76a1,1,0,0,1,.9.55L40.38,10H3.8ZM41,33a1,1,0,0,1-1,1H4a1,1,0,0,1-1-1V25a1,1,0,0,1,1-1H40a1,1,0,0,1,1,1Zm0-12a1,1,0,0,1-1,1H4a1,1,0,0,1-1-1V13a1,1,0,0,1,1-1H40a1,1,0,0,1,1,1Z"/><path class="cls-2" d="M22,14a1,1,0,0,0-1,1v4a1,1,0,0,0,2,0V15A1,1,0,0,0,22,14Z"/><path class="cls-2" d="M22,26a1,1,0,0,0-1,1v4a1,1,0,0,0,2,0V27A1,1,0,0,0,22,26Z"/><path class="cls-2" d="M15,14H9a3,3,0,0,0,0,6h6a3,3,0,0,0,0-6Zm0,4H9a1,1,0,0,1,0-2h6a1,1,0,0,1,0,2Z"/><path class="cls-2" d="M15,26H9a3,3,0,0,0,0,6h6a3,3,0,0,0,0-6Zm0,4H9a1,1,0,0,1,0-2h6a1,1,0,0,1,0,2Z"/><path class="cls-2" d="M37,14H27a1,1,0,0,0,0,2H37a1,1,0,0,0,0-2Z"/><path class="cls-2" d="M37,18H27a1,1,0,0,0,0,2H37a1,1,0,0,0,0-2Z"/><path class="cls-2" d="M37,26H27a1,1,0,0,0,0,2H37a1,1,0,0,0,0-2Z"/><path class="cls-2" d="M37,30H27a1,1,0,0,0,0,2H37a1,1,0,0,0,0-2Z"/></svg>