<svg id="line" xmlns="http://www.w3.org/2000/svg" viewBox="0 0 64 64"><defs><style>.cls-1{fill:#c4a2fc;}.cls-2{fill:#151a6a;}</style></defs><path class="cls-1" d="M42,21A21,21,0,1,0,63,42,21,21,0,0,0,42,21Zm0,37A16,16,0,1,1,58,42,16,16,0,0,1,42,58Z"/><path class="cls-1" d="M42,28A14,14,0,1,0,56,42,14,14,0,0,0,42,28ZM40.8,47.46a1,1,0,0,1-1.16.08L32,42.8a1,1,0,0,1,1.06-1.7l7,4.37,10.75-8.93a1,1,0,0,1,1.41.13,1,1,0,0,1-.13,1.41Z"/><path class="cls-2" d="M42,9A29.06,29.06,0,0,1,22.66,1.25a1,1,0,0,0-1.32,0A28,28,0,0,1,2,9a1,1,0,0,0-1,1v7.64A37,37,0,0,0,21.55,50.89a1,1,0,0,0,.9,0A37,37,0,0,0,43,17.64V10A1,1,0,0,0,42,9Zm-1,8.64A35,35,0,0,1,22,48.88,35,35,0,0,1,3,17.64V11A29.92,29.92,0,0,0,21.89,3.44l.11-.1.11.1A29.92,29.92,0,0,0,41,11Z"/><path class="cls-2" d="M17,22a5,5,0,0,0,1.52,3.57L17,33.82A1,1,0,0,0,18,35h8a1,1,0,0,0,1-1.18l-1.5-8.25A5,5,0,0,0,27,22a5,5,0,0,0-10,0Zm8,0a3,3,0,0,1-1.21,2.39,1,1,0,0,0-.38,1L24.8,33H19.2l1.39-7.64a1,1,0,0,0-.38-1A3,3,0,0,1,19,22a3,3,0,0,1,6,0Z"/></svg>