<svg id="line" xmlns="http://www.w3.org/2000/svg" viewBox="0 0 64 64"><defs><style>.cls-1{fill:#c4a2fc;}.cls-2{fill:#151a6a;}</style></defs><path class="cls-1" d="M62,24a6,6,0,0,1-6-6V16.55a1,1,0,0,0-.64-.93,35.69,35.69,0,0,0-26.72,0,1,1,0,0,0-.64.93V18a6,6,0,0,1-6,6,1,1,0,0,0-1,1V48.9a3,3,0,0,0,1.4,2.53L39.62,62.31a4.45,4.45,0,0,0,4.76,0L61.6,51.43A3,3,0,0,0,63,48.9V25A1,1,0,0,0,62,24ZM45,42.13a3.12,3.12,0,1,1-6.06,0l1.15-4.61a4,4,0,1,1,3.76,0Z"/><path class="cls-2" d="M30,1H4A3,3,0,0,0,1,4V48a3,3,0,0,0,3,3H30a3,3,0,0,0,3-3V4A3,3,0,0,0,30,1ZM23.38,3l-.72,1.45a1,1,0,0,1-.9.55H12.24a1,1,0,0,1-.9-.55L10.62,3ZM4,3H8.38L9.55,5.34A3,3,0,0,0,12.24,7h9.52a3,3,0,0,0,2.69-1.66L25.62,3H30a1,1,0,0,1,1,1V45H3V4A1,1,0,0,1,4,3ZM30,49H4a1,1,0,0,1-1-1V47H31v1A1,1,0,0,1,30,49Z"/><path class="cls-2" d="M14.17,28.09a4.1,4.1,0,0,0,0,5.72,4,4,0,0,0,5.66,0,4.1,4.1,0,0,0,0-5.72A4,4,0,0,0,14.17,28.09Zm4.24,4.32a2,2,0,0,1-2.82,0,2.1,2.1,0,0,1,0-2.92,2,2,0,0,1,2.82,0A2.1,2.1,0,0,1,18.41,32.41Z"/><path class="cls-2" d="M17,22a8.63,8.63,0,0,0-6.21,2.61,1,1,0,0,0,0,1.42,1,1,0,0,0,1.41,0,6.71,6.71,0,0,1,9.58,0,1,1,0,0,0,1.41,0,1,1,0,0,0,0-1.42A8.63,8.63,0,0,0,17,22Z"/><path class="cls-2" d="M8.71,22.49a11.59,11.59,0,0,1,16.58,0,1,1,0,0,0,1.42-1.4,13.57,13.57,0,0,0-19.42,0,1,1,0,1,0,1.42,1.4Z"/></svg>