<svg id="line" xmlns="http://www.w3.org/2000/svg" viewBox="0 0 64 64"><defs><style>.cls-1{fill:#c4a2fc;}.cls-2{fill:#151a6a;}</style></defs><path class="cls-1" d="M62.47,57l-18.88-33a4,4,0,0,0-6.94,0L17.77,57a4,4,0,0,0,3.47,6H59A4,4,0,0,0,62.47,57Zm-21.3-2a1,1,0,0,1-2,0V54a1,1,0,0,1,2,0Zm0-5a1,1,0,0,1-2,0V36a1,1,0,0,1,2,0Z"/><path class="cls-2" d="M48,1H4A3,3,0,0,0,1,4V32a3,3,0,0,0,3,3H48a3,3,0,0,0,3-3V4A3,3,0,0,0,48,1ZM28,19.92a3,3,0,0,1-4,0L4.82,3H47.18ZM48,33H4a1,1,0,0,1-1-1V4.06L18.81,18l-8.22,7.25a1,1,0,0,0,1.32,1.5l8.42-7.42,2.36,2.09a5,5,0,0,0,6.62,0l2.36-2.09,8.42,7.42a1,1,0,1,0,1.32-1.5L33.19,18,49,4.06V32A1,1,0,0,1,48,33Z"/></svg>