<svg id="line" xmlns="http://www.w3.org/2000/svg" viewBox="0 0 64 64"><defs><style>.cls-1{fill:#c4a2fc;}.cls-2{fill:#151a6a;}</style></defs><path class="cls-1" d="M62.69,45.59l-7.45-7.76a25.79,25.79,0,0,0-37.48,0l-7.45,7.76a1.14,1.14,0,0,0,0,1.56l7.45,7.76a25.75,25.75,0,0,0,37.48,0l7.45-7.76A1.14,1.14,0,0,0,62.69,45.59Zm-26.19,14A13.25,13.25,0,1,1,49.75,46.37,13.26,13.26,0,0,1,36.5,59.62Z"/><path class="cls-1" d="M36.5,35.4a11,11,0,1,0,11,11A11,11,0,0,0,36.5,35.4Zm0,18.11a7.14,7.14,0,1,1,7.13-7.14A7.14,7.14,0,0,1,36.5,53.51Z"/><circle class="cls-1" cx="36.5" cy="46.37" r="4.97"/><path class="cls-2" d="M36,25H30c0-.33.05-.66.05-1V16h4a1,1,0,0,0,0-2H29.93l-.61-7.94A5.48,5.48,0,0,0,20,2.6a1.37,1.37,0,0,1-2,0A5.48,5.48,0,0,0,8.69,6.06L8.08,14H4a1,1,0,0,0,0,2H8v8c0,.34,0,.67.05,1H2a1,1,0,0,0-.87,1.49l4.5,8a1,1,0,0,0,.6.47l2,.58-.78.94a1,1,0,0,0-.05,1.2l8.15,12A3,3,0,0,0,18.06,51h1.88a3,3,0,0,0,2.48-1.32l8.16-12a1,1,0,0,0-.06-1.2l-.77-.94,2-.58a1,1,0,0,0,.59-.47l4.5-8A1,1,0,0,0,36,25ZM19,45.69l-2.63-11a10.65,10.65,0,0,0,5.26,0ZM19,33a9,9,0,0,1-9-9v0a4.92,4.92,0,0,0,3,1,5,5,0,0,0,5-5h2a5,5,0,0,0,5,5,4.92,4.92,0,0,0,3-1v0A9,9,0,0,1,19,33ZM10.31,11H27.69l.23,3H10.08ZM28,16v2H10V16Zm0,4a3,3,0,0,1-6,0ZM16,20a3,3,0,0,1-6,0ZM14.15,3a3.45,3.45,0,0,1,2.46,1A3.39,3.39,0,0,0,21.4,4a3.43,3.43,0,0,1,2.46-1,3.49,3.49,0,0,1,3.46,3.21L27.54,9H10.47l.21-2.79A3.49,3.49,0,0,1,14.15,3Zm3.08,45.56L9.5,37.17l1.27-1.53a1,1,0,0,0-.49-1.6l-3.11-.89L3.71,27H8.43a11,11,0,0,0,5.69,6.84l3.6,15.09A1,1,0,0,1,17.23,48.56Zm13.6-15.41-3.1.89a1,1,0,0,0-.5,1.6l1.27,1.53L20.77,48.56a1,1,0,0,1-.49.37l3.61-15.09A11,11,0,0,0,29.57,27h4.72Z"/></svg>