<svg id="line" xmlns="http://www.w3.org/2000/svg" viewBox="0 0 64 64"><defs><style>.cls-1{fill:#c4a2fc;}.cls-2{fill:#151a6a;}</style></defs><path class="cls-1" d="M60,21H20a3,3,0,0,0-3,3V45H63V24A3,3,0,0,0,60,21Z"/><path class="cls-1" d="M17,52a3,3,0,0,0,3,3H60a3,3,0,0,0,3-3V47H17Zm22-2h2a1,1,0,0,1,0,2H39a1,1,0,0,1,0-2Z"/><path class="cls-1" d="M50,61H48.78l-1-4H32.22l-1,4H30a1,1,0,0,0,0,2H50a1,1,0,0,0,0-2Z"/><path class="cls-2" d="M28.07,9.18A25.84,25.84,0,0,0,9.24,1H2A1,1,0,0,0,1,2v.39a7.7,7.7,0,0,0,2.88,6L1,20.78a1,1,0,0,0,.42,1l3,2a1,1,0,0,0,1.15,0L9.33,21h.72a4.91,4.91,0,0,0,.86-.07A10.93,10.93,0,0,1,8.3,26.71,20.45,20.45,0,0,0,3.33,38l-.08.67a3,3,0,0,0,3,3.33H32a3,3,0,0,0,3-3V26.76A25.68,25.68,0,0,0,28.07,9.18ZM5.24,38.89l.07-.67A18.6,18.6,0,0,1,9.8,28,12.89,12.89,0,0,0,13,20.09a5.17,5.17,0,0,0,1.95-2.52,1,1,0,1,0-1.88-.68,3.21,3.21,0,0,1-3,2.11H9a1,1,0,0,0-.6.2L5,21.78,3.13,20.55,5.8,9H9.19A17.82,17.82,0,0,1,27,26.81V40H6.23A1,1,0,0,1,5.24,38.89ZM33,39a1,1,0,0,1-1,1H29V26.81A19.81,19.81,0,0,0,9.19,7H5.33A5.71,5.71,0,0,1,3,3H9.24a23.84,23.84,0,0,1,17.37,7.55A23.67,23.67,0,0,1,33,26.76Z"/></svg>