<svg id="line" xmlns="http://www.w3.org/2000/svg" viewBox="0 0 64 64"><defs><style>.cls-1{fill:#c4a2fc;}.cls-2{fill:#151a6a;}</style></defs><path class="cls-1" d="M25.5,32a1,1,0,0,1,.8.4L29,36H61.5V29a3,3,0,0,0-3-3h-44a3,3,0,0,0-3,3v3Z"/><rect class="cls-1" x="40.5" y="51" width="14" height="5"/><path class="cls-1" d="M28.5,38a1,1,0,0,1-.8-.4L25,34H13.5a2,2,0,0,0-2,2V60a3,3,0,0,0,3,3h44a3,3,0,0,0,3-3V38Zm28,19a1,1,0,0,1-1,1h-16a1,1,0,0,1-1-1V50a1,1,0,0,1,1-1h16a1,1,0,0,1,1,1Z"/><path class="cls-2" d="M25.5,14h-2V4a3,3,0,0,0-3-3h-10a3,3,0,0,0-3,3V14h-2a3,3,0,0,0-3,3V38a13,13,0,0,0,26,0V17A3,3,0,0,0,25.5,14Zm-4-10V14h-6V12a2,2,0,0,0,2-2V7a2,2,0,0,0-2-2V3h5A1,1,0,0,1,21.5,4ZM9.5,4a1,1,0,0,1,1-1h3V5a2,2,0,0,0,2,2v3a2,2,0,0,0-2,2v2h-4Zm17,34a11,11,0,0,1-22,0V17a1,1,0,0,1,1-1h20a1,1,0,0,1,1,1Z"/><path class="cls-2" d="M15.5,33a5,5,0,1,0,5,5A5,5,0,0,0,15.5,33Zm0,8a3,3,0,1,1,3-3A3,3,0,0,1,15.5,41Z"/></svg>