<svg id="line" xmlns="http://www.w3.org/2000/svg" viewBox="0 0 64 64"><defs><style>.cls-1{fill:#c4a2fc;}.cls-2{fill:#151a6a;}</style></defs><path class="cls-1" d="M50,52.5a3,3,0,0,1,3-3H63v-34a3,3,0,0,0-3-3H24a3,3,0,0,0-3,3v44a3,3,0,0,0,3,3H50ZM36.75,44.84a1,1,0,0,1-1.5,1.32l-7-8a1,1,0,0,1,0-1.32l7-8a1,1,0,1,1,1.5,1.32L30.33,37.5Zm5.24.78a1,1,0,0,1-2-.24l2-16a1,1,0,1,1,2,.24Zm5.35.63a1,1,0,0,1-.09-1.41l6.42-7.34-6.42-7.34a1,1,0,0,1,1.5-1.32l7,8a1,1,0,0,1,0,1.32l-7,8A1,1,0,0,1,47.34,46.25Z"/><path class="cls-1" d="M53,51.5a1,1,0,0,0-1,1v9.87a2.91,2.91,0,0,0,1.29-.75l8.83-8.83a2.91,2.91,0,0,0,.75-1.29Z"/><path class="cls-2" d="M38.6,33.7a1,1,0,0,0-.6-.2H34.64a13,13,0,0,0,.36-3v-3h7a1,1,0,0,0,0-2H35v-6h3a1,1,0,0,0,.6-.2l4-3a1,1,0,1,0-1.2-1.6l-3.73,2.8H34.94A9,9,0,0,0,27,9.56V9.5a5,5,0,0,0-2.08-4l1.29-1.62,2.24,1.49a1,1,0,1,0,1.1-1.66l-3-2a1,1,0,0,0-1.33.21L23,4.61a4.88,4.88,0,0,0-2.06,0L18.78,1.88a1,1,0,0,0-1.33-.21l-3,2a1,1,0,1,0,1.1,1.66l2.24-1.49,1.29,1.62A5,5,0,0,0,17,9.5v.06A9,9,0,0,0,9.06,17.5H6.33L2.6,14.7a1,1,0,0,0-1.2,1.6l4,3a1,1,0,0,0,.6.2H9v6H2a1,1,0,0,0,0,2H9v3a13,13,0,0,0,.36,3H6a1,1,0,0,0-.6.2l-4,3a1,1,0,1,0,1.2,1.6l3.73-2.8H10a13,13,0,0,0,24,0h3.67l3.73,2.8a1,1,0,1,0,1.2-1.6ZM22,15.5c-3.22,0-6-1.46-6.78-3.42A7,7,0,0,1,18,11.5h8a7,7,0,0,1,2.78.58C28,14,25.22,15.5,22,15.5Zm0-9a3,3,0,0,1,3,3H19A3,3,0,0,1,22,6.5Zm0,35a11,11,0,0,1-11-11v-12a7,7,0,0,1,2.5-5.36c1.12,2.34,4,4,7.5,4.32v19a1,1,0,0,0,2,0v-19c3.48-.28,6.38-2,7.5-4.32A7,7,0,0,1,33,18.5v12A11,11,0,0,1,22,41.5Z"/></svg>