<svg id="line" xmlns="http://www.w3.org/2000/svg" viewBox="0 0 64 64"><defs><style>.cls-1{fill:#c4a2fc;}.cls-2{fill:#151a6a;}</style></defs><path class="cls-1" d="M39,59.82a6.82,6.82,0,0,0-.71-3,9.14,9.14,0,0,1-.72-5.76,2,2,0,0,0-3.4-1.82A17.21,17.21,0,0,1,24.77,54,21,21,0,0,0,39,62.76Z"/><path class="cls-1" d="M48.83,25.83a10.1,10.1,0,0,1-2.71,9.47,2.41,2.41,0,0,0,2.6,3.94,7.45,7.45,0,0,1,6.39.46,5.07,5.07,0,0,0,4.23.46L62.76,39A21,21,0,0,0,47.92,21.86Z"/><path class="cls-1" d="M48.4,59.31l.39-3.51a3,3,0,0,0-.85-2.45,3.67,3.67,0,0,1,4.8-5.54A7.07,7.07,0,0,0,56.4,49.2l5.15.43A21,21,0,0,0,63,42c0-.31,0-.62,0-.93l-3,1a7.07,7.07,0,0,1-5.9-.65,5.2,5.2,0,0,0-4.62-.32,4.41,4.41,0,0,1-4.76-7.21,8.08,8.08,0,0,0,2.18-7.6l-1.13-4.93A21,21,0,0,0,23.62,52.14a15.56,15.56,0,0,0,9.14-4.31,4,4,0,0,1,6.77,3.62,6.81,6.81,0,0,0,.55,4.47,8.83,8.83,0,0,1,.92,3.9V63c.33,0,.66,0,1,0a20.74,20.74,0,0,0,6.62-1.09A6.86,6.86,0,0,1,48.4,59.31Z"/><path class="cls-1" d="M56.23,51.19a9.1,9.1,0,0,1-4.69-1.78,1.68,1.68,0,0,0-2.35.33,1.7,1.7,0,0,0,.16,2.2A4.94,4.94,0,0,1,50.78,56l-.39,3.51a5.13,5.13,0,0,0,.11,1.66,21.1,21.1,0,0,0,10.17-9.63Z"/><path class="cls-2" d="M42.37,9.07l-20-8a1,1,0,0,0-.74,0l-20,8A1,1,0,0,0,1,10v7.64A37,37,0,0,0,21.55,50.89a1,1,0,0,0,.9,0A37,37,0,0,0,43,17.64V10A1,1,0,0,0,42.37,9.07ZM41,17.64A35,35,0,0,1,22,48.88,35,35,0,0,1,3,17.64v-7l19-7.6,19,7.6Z"/><path class="cls-2" d="M21.63,5.38l-16,6.4a1,1,0,0,0-.63.93v4.93A32.81,32.81,0,0,0,21.5,46.32a1,1,0,0,0,1,0A32.81,32.81,0,0,0,39,17.64V12.71a1,1,0,0,0-.63-.93l-16-6.4A1,1,0,0,0,21.63,5.38ZM22,44.3A31.22,31.22,0,0,1,15.43,39H28.57A31.22,31.22,0,0,1,22,44.3ZM30.3,37H13.7A30.92,30.92,0,0,1,7,17.64V15H37v2.64A30.92,30.92,0,0,1,30.3,37ZM36,13H8L22,7.39Z"/><path class="cls-2" d="M27,22a5,5,0,0,0-10,0,3,3,0,0,0-3,3v7a3,3,0,0,0,3,3H27a3,3,0,0,0,3-3V25A3,3,0,0,0,27,22Zm-5-3a3,3,0,0,1,3,3H19A3,3,0,0,1,22,19Zm6,13a1,1,0,0,1-1,1H17a1,1,0,0,1-1-1V25a1,1,0,0,1,1-1H27a1,1,0,0,1,1,1Z"/></svg>