<svg id="line" xmlns="http://www.w3.org/2000/svg" viewBox="0 0 64 64"><defs><style>.cls-1{fill:#c4a2fc;}.cls-2{fill:#151a6a;}</style></defs><path class="cls-1" d="M13,38.5v21a3,3,0,0,0,3,3H60a3,3,0,0,0,3-3v-21Zm44,19H46a1,1,0,0,1,0-2H57a1,1,0,0,1,0,2Zm0-5H46a1,1,0,0,1,0-2H57a1,1,0,0,1,0,2Z"/><path class="cls-1" d="M63,36.5v-8a3,3,0,0,0-3-3H39a3,3,0,0,0-2.34,1.13l-2.8,3.49a1,1,0,0,1-.78.38H16a3,3,0,0,0-3,3v3Z"/><path class="cls-2" d="M45,20.5H44a1,1,0,0,1-1-1v-9h0v0a9,9,0,0,0-9-9H18a9,9,0,0,0-9,9v0H9v9a1,1,0,0,1-1,1H7a6,6,0,0,0,0,12h5a9,9,0,0,0,9-9v0h0v-9a1,1,0,0,1,1-1h8a1,1,0,0,1,1,1v9h0v0a9,9,0,0,0,9,9h5a6,6,0,0,0,0-12ZM33,22V15.18L41,12v6.84ZM41,9.84l-8.3,3.32a3,3,0,0,0-1.5-1.42L32.82,3.5H34A7,7,0,0,1,41,9.84ZM21.22,3.5h9.56l-1.6,8H22.82ZM18,3.5h1.18l1.65,8.24a3,3,0,0,0-1.5,1.42L11,9.84A7,7,0,0,1,18,3.5ZM11,18.82V12l8,3.2V22ZM3,26.5a4,4,0,0,1,4-4h.26l2.4,8H7A4,4,0,0,1,3,26.5Zm9,4h-.26L9.26,22.21a3,3,0,0,0,1.41-1.37L19,24.16A7,7,0,0,1,12,30.5Zm21-6.34,8.3-3.32a3,3,0,0,0,1.41,1.37L40.26,30.5H40A7,7,0,0,1,33,24.16ZM45,30.5H42.34l2.4-8H45a4,4,0,0,1,0,8Z"/></svg>